<svg width="20" height="20" viewBox="0 0 20 20" fill="none" xmlns="http://www.w3.org/2000/svg">
<path d="M5.5667 1.58475L4.1324 0.150451C1.72518 1.98596 0.140421 4.81444 0 8.02407H2.00602C2.15647 5.3661 3.52056 3.03912 5.5667 1.58475V1.58475ZM17.994 8.02407H20C19.8495 4.81444 18.2648 1.98596 15.8676 0.150451L14.4433 1.58475C16.4694 3.03912 17.8435 5.3661 17.994 8.02407ZM16.0181 8.52558C16.0181 5.44634 14.3731 2.86861 11.5045 2.18656V0H8.49549V2.18656C5.61685 2.86861 3.98195 5.43631 3.98195 8.52558V13.5406L1.97593 15.5466V16.5496H18.0241V15.5466L16.0181 13.5406V8.52558ZM10 19.5587C10.1404 19.5587 10.2708 19.5486 10.4012 19.5186C11.0532 19.3781 11.5848 18.9368 11.8455 18.335C11.9458 18.0943 11.996 17.8335 11.996 17.5527H7.98395C7.99398 18.656 8.88666 19.5587 10 19.5587Z" fill="black"/>
</svg>
